<svg id="Ebene_1" data-name="Ebene 1" xmlns="http://www.w3.org/2000/svg" viewBox="0 0 177.05 72.66"><defs><style>.cls-1{fill:#004169;}.cls-2{fill:#ff6e64;}.cls-3{fill:none;}</style></defs><path class="cls-1" d="M54.47,33.52c2,.11,3.17.14,4.9.14,1.47,0,2.45,0,3.81-.14v1.4c-.86.11-1.4.54-1.4,1.08a9.4,9.4,0,0,0,.79,2.78l5,12.75,3.07-6.13-3.35-7.16c-1.37-2.88-1.62-3.17-2.81-3.32v-1.4c1.83.11,2.81.14,4.14.14s2.23,0,3.82-.14v1.4c-.94.11-1.3.33-1.3.83a6.83,6.83,0,0,0,.65,2.31l1.3,2.88,1.44-3.1a5.74,5.74,0,0,0,.61-2c0-.54-.47-.9-1.19-.9h-.14v-1.4c1.29.07,2.27.11,3.6.11,1.15,0,1.83,0,2.81-.11v1.4c-1.66,0-2,.36-3.57,3.39l-2.48,4.93,3.6,8.29L82.56,40a13.73,13.73,0,0,0,1.23-3.82c0-.79-.76-1.3-2-1.3v-1.4c.61,0,.9,0,1.3,0l4.25.08c.36,0,.72,0,1.48-.11V35c-1.62.1-2,.64-4.11,5.33L78.35,55.06c-.58,1.37-.94,2.23-1.08,2.63h-.94l-4.65-9.91-5.07,9.91h-1L65.38,57c-.18-.47-.39-.94-.57-1.37L58.9,41.33C56.66,36,56,35,54.83,35h-.22a.31.31,0,0,1-.14,0Z"/><path class="cls-1" d="M100.75,54.66a8.55,8.55,0,0,1-6.48,3.24c-3.93,0-6.81-3.17-6.81-7.56,0-4.72,3.28-8.25,7.64-8.25,3.31,0,5.51,2,5.51,5,0,1.3-.25,1.59-1.51,1.59H91.5a3.34,3.34,0,0,0,0,.65c0,3.42,2.05,5.94,4.83,5.94a5.74,5.74,0,0,0,3.63-1.51Zm-4.93-7.45c.83,0,1.15-.33,1.15-1.12a2.25,2.25,0,0,0-2.2-2.49c-1.58,0-2.63,1.23-3.13,3.61Z"/><path class="cls-2" d="M123.12,40.65c-.68-3.82-3-5.87-6.55-5.87-5.15,0-8.58,4.25-8.58,10.7s3.43,10.66,8.54,10.66c3.82,0,6.12-2.13,7-6.34l1.55.11-1,6.12a20.56,20.56,0,0,1-8.53,2c-7.42,0-12.47-5-12.47-12.35A12.17,12.17,0,0,1,115.2,33a30.65,30.65,0,0,1,8.1,1.3c.51.15.58.18.9.25l.47,5.91Z"/><path class="cls-2" d="M142.54,56.25a6.63,6.63,0,0,1-3.89,1.65,2.45,2.45,0,0,1-2.53-2.23,7.67,7.67,0,0,1-5,2.31,3.28,3.28,0,0,1-3.35-3.53c0-2,.75-2.67,3.92-3.82L136.12,49V47.82a5.86,5.86,0,0,0-.46-2.85,1.8,1.8,0,0,0-1.48-.9,3,3,0,0,0-1.84.76c-.39.29-.54.61-.68,1.4s-.22.87-.61,1.12a6.06,6.06,0,0,1-2.2.79c-.29,0-.47-.32-.47-.83a2.26,2.26,0,0,1,.72-1.65,10.8,10.8,0,0,1,3.13-2.34l2.38-1.12a10,10,0,0,1,1.23-.11,4.43,4.43,0,0,1,3.67,2,6.79,6.79,0,0,1,.65,3.38l0,3.57v2.81c0,1.37.25,2,.79,2a2.16,2.16,0,0,0,.87-.4l.14-.11Zm-7.28-5.59a8,8,0,0,0-2.63,1.23,2.61,2.61,0,0,0-.76,1.8,1.73,1.73,0,0,0,1.66,1.91,3.93,3.93,0,0,0,2.59-1.26v-4Z"/><path class="cls-2" d="M144.16,43.78a28.19,28.19,0,0,0,5.36-1.94l.22.07a30.71,30.71,0,0,1,.14,3.6c1.37-2.41,2.67-3.42,4.43-3.42,1.05,0,1.81.47,1.81,1.15,0,1.34-.8,2.85-1.48,2.85a3.16,3.16,0,0,1-1-.29,3.8,3.8,0,0,0-1.44-.32,1.89,1.89,0,0,0-1.51,1,8,8,0,0,0-.61,3.89v2.38c0,2.45,0,2.45.21,2.88s.72.54,1.52.54h.39v1.4c-1.73-.1-2.73-.14-4.39-.14-1.48,0-2.41,0-3.86.14v-1.4h.44c.79,0,1.33-.18,1.51-.54s.22-.43.22-2.88V48.54c0-3.21-.15-3.49-1.7-3.49h-.21Z"/><path class="cls-2" d="M170.42,54.66a8.56,8.56,0,0,1-6.49,3.24c-3.92,0-6.81-3.17-6.81-7.56,0-4.72,3.28-8.25,7.64-8.25,3.31,0,5.51,2,5.51,5,0,1.3-.25,1.59-1.51,1.59h-7.6a3.34,3.34,0,0,0,0,.65c0,3.42,2.06,5.94,4.83,5.94a5.77,5.77,0,0,0,3.64-1.51Zm-4.94-7.45c.83,0,1.15-.33,1.15-1.12a2.24,2.24,0,0,0-2.19-2.49c-1.59,0-2.63,1.23-3.14,3.61Z"/><path class="cls-1" d="M59,68l-.14-.49s0,0,0,0H57.5a0,0,0,0,0,0,0l-.15.49a.1.1,0,0,1-.1.07h-.61a.09.09,0,0,1-.07,0,.08.08,0,0,1,0-.07l1.12-3.52a.1.1,0,0,1,.1-.07h.78a.1.1,0,0,1,.1.07L59.76,68s0,0,0,0a.06.06,0,0,1,0,0,.07.07,0,0,1-.06,0h-.62A.1.1,0,0,1,59,68M57.68,67h.94s0,0,0,0l-.47-1.61,0,0,0,0-.46,1.61s0,0,0,0"/><path class="cls-1" d="M60.24,68V64.51a.08.08,0,0,1,.09-.09h.54a.11.11,0,0,1,.11.06l1.32,2.19,0,0s0,0,0,0V64.51a.08.08,0,0,1,.09-.09H63a.08.08,0,0,1,.09.09V68a.08.08,0,0,1-.09.09h-.54a.12.12,0,0,1-.1-.06L61,65.83s0,0,0,0,0,0,0,0V68a.08.08,0,0,1-.09.09h-.56a.08.08,0,0,1-.09-.09"/><path class="cls-1" d="M66.16,65.06h-1.7a0,0,0,0,0,0,0v.81a0,0,0,0,0,0,0h1.1a.08.08,0,0,1,.09.09v.46a.08.08,0,0,1-.09.09h-1.1a0,0,0,0,0,0,0v.84s0,0,0,0h1.7c.06,0,.09,0,.09.08V68a.08.08,0,0,1-.09.09H63.77a.08.08,0,0,1-.09-.09V64.51a.08.08,0,0,1,.09-.09h2.39a.08.08,0,0,1,.09.09V65a.08.08,0,0,1-.09.09"/><path class="cls-1" d="M68.71,68l-.65-1.43s0,0,0,0h-.48a0,0,0,0,0,0,0V68a.08.08,0,0,1-.09.09h-.56a.08.08,0,0,1-.09-.09V64.5a.08.08,0,0,1,.09-.09h1.48a1.25,1.25,0,0,1,.59.14,1,1,0,0,1,.4.4,1.18,1.18,0,0,1,.14.58,1,1,0,0,1-.18.61.94.94,0,0,1-.5.37s0,0,0,0,0,0,0,0L69.47,68a.06.06,0,0,1,0,.09h-.66a.1.1,0,0,1-.1-.07m-1.2-3V66a0,0,0,0,0,0,0h.69a.53.53,0,0,0,.36-.13.46.46,0,0,0,.14-.34.46.46,0,0,0-.5-.48h-.69a0,0,0,0,0,0,0"/><path class="cls-1" d="M70,68V64.51a.08.08,0,0,1,.09-.09h.56a.08.08,0,0,1,.09.09V66s0,0,0,0,0,0,0,0L72,64.47a.14.14,0,0,1,.11,0h.7a.05.05,0,0,1,0,0s0,0,0,.06L71.64,66s0,0,0,0l1.22,2a.08.08,0,0,1,0,0s0,0-.08,0h-.63a.13.13,0,0,1-.11,0l-.92-1.5,0,0s0,0,0,0l-.32.41s0,0,0,0v1a.08.08,0,0,1-.09.09H70.1A.08.08,0,0,1,70,68"/><path class="cls-1" d="M75.79,65.06h-1.7a0,0,0,0,0,0,0v.81a0,0,0,0,0,0,0h1.1a.08.08,0,0,1,.09.09v.46a.08.08,0,0,1-.09.09h-1.1a0,0,0,0,0,0,0v.84s0,0,0,0h1.7c.06,0,.09,0,.09.08V68a.08.08,0,0,1-.09.09H73.4a.08.08,0,0,1-.09-.09V64.51a.08.08,0,0,1,.09-.09h2.39a.08.08,0,0,1,.09.09V65a.08.08,0,0,1-.09.09"/><path class="cls-1" d="M76.39,68V64.51a.08.08,0,0,1,.09-.09H77a.11.11,0,0,1,.1.06l1.32,2.19s0,0,0,0,0,0,0,0V64.51a.08.08,0,0,1,.09-.09h.55a.08.08,0,0,1,.09.09V68a.08.08,0,0,1-.09.09H78.6a.13.13,0,0,1-.11-.06l-1.32-2.22s0,0,0,0,0,0,0,0V68a.08.08,0,0,1-.09.09h-.56a.08.08,0,0,1-.09-.09"/><path class="cls-1" d="M79.84,68V64.51a.08.08,0,0,1,.09-.09h.54a.11.11,0,0,1,.1.06l1.32,2.19s0,0,0,0,0,0,0,0V64.51a.08.08,0,0,1,.09-.09h.56c.06,0,.08,0,.08.09V68c0,.06,0,.09-.08.09H82a.13.13,0,0,1-.11-.06l-1.32-2.22s0,0,0,0,0,0,0,0V68a.08.08,0,0,1-.09.09h-.55a.08.08,0,0,1-.09-.09"/><path class="cls-1" d="M83.93,68a1.2,1.2,0,0,1-.65-1.11V64.51a.08.08,0,0,1,.09-.09h.57a.08.08,0,0,1,.09.09v2.38a.62.62,0,1,0,1.24,0V64.51a.08.08,0,0,1,.09-.09h.57a.08.08,0,0,1,.09.09v2.38a1.3,1.3,0,0,1-.17.66,1.25,1.25,0,0,1-.49.45,1.58,1.58,0,0,1-.71.16,1.66,1.66,0,0,1-.72-.16"/><path class="cls-1" d="M86.63,68V64.51a.08.08,0,0,1,.09-.09h.54a.13.13,0,0,1,.11.06l1.32,2.19,0,0s0,0,0,0V64.51c0-.06,0-.09.08-.09h.56a.08.08,0,0,1,.09.09V68a.08.08,0,0,1-.09.09h-.54a.11.11,0,0,1-.1-.06L87.4,65.83s0,0,0,0a0,0,0,0,0,0,0V68a.08.08,0,0,1-.09.09h-.56a.08.08,0,0,1-.09-.09"/><path class="cls-1" d="M90.68,68a1.18,1.18,0,0,1-.48-.46,1.33,1.33,0,0,1-.17-.67V65.67A1.4,1.4,0,0,1,90.2,65a1.16,1.16,0,0,1,.48-.45,1.53,1.53,0,0,1,.72-.16,1.58,1.58,0,0,1,.71.15,1.19,1.19,0,0,1,.48.43,1.1,1.1,0,0,1,.17.61h0a.08.08,0,0,1-.09.09H92s0,0,0,0v0a.57.57,0,0,0-.17-.41A.61.61,0,0,0,91.4,65a.62.62,0,0,0-.46.18.65.65,0,0,0-.17.46v1.23a.59.59,0,0,0,.19.46.71.71,0,0,0,.91,0A.54.54,0,0,0,92,67v-.23s0,0,0,0h-.56a.08.08,0,0,1-.09-.09v-.43a.08.08,0,0,1,.09-.09h1.23a.08.08,0,0,1,.09.09v.67a1.32,1.32,0,0,1-.17.7,1.07,1.07,0,0,1-.47.45,1.66,1.66,0,0,1-.72.16,1.53,1.53,0,0,1-.72-.17"/><path class="cls-1" d="M95.26,68.45V64.19a.08.08,0,0,1,.09-.09h.56a.08.08,0,0,1,.09.09v4.26a.08.08,0,0,1-.09.09h-.56a.08.08,0,0,1-.09-.09"/><path class="cls-1" d="M100.54,68l-.65-1.43a0,0,0,0,0,0,0h-.48a0,0,0,0,0,0,0V68a.08.08,0,0,1-.09.09h-.57A.08.08,0,0,1,98.6,68V64.5a.08.08,0,0,1,.09-.09h1.48a1.27,1.27,0,0,1,.6.14,1,1,0,0,1,.39.4,1.09,1.09,0,0,1,.14.58,1,1,0,0,1-.18.61.91.91,0,0,1-.49.37,0,0,0,0,0,0,0s0,0,0,0l.7,1.46,0,0a.05.05,0,0,1,0,0h-.65a.12.12,0,0,1-.11-.07m-1.19-3V66a0,0,0,0,0,0,0h.68a.53.53,0,0,0,.36-.13.42.42,0,0,0,.14-.34.45.45,0,0,0-.14-.35.48.48,0,0,0-.36-.13h-.68a0,0,0,0,0,0,0"/><path class="cls-1" d="M104.32,65.06h-1.7a0,0,0,0,0,0,0v.81a0,0,0,0,0,0,0h1.1a.08.08,0,0,1,.09.09v.46a.08.08,0,0,1-.09.09h-1.1a0,0,0,0,0,0,0v.84s0,0,0,0h1.7c.06,0,.09,0,.09.08V68a.08.08,0,0,1-.09.09h-2.39a.08.08,0,0,1-.09-.09V64.51a.08.08,0,0,1,.09-.09h2.39a.08.08,0,0,1,.09.09V65a.08.08,0,0,1-.09.09"/><path class="cls-1" d="M105.5,68a1,1,0,0,1-.48-.45,1.31,1.31,0,0,1-.17-.67V65.65A1.36,1.36,0,0,1,105,65a1.16,1.16,0,0,1,.48-.45,1.8,1.8,0,0,1,1.44,0,1.22,1.22,0,0,1,.48.42,1.26,1.26,0,0,1,.17.65s0,.05-.08.05l-.57,0h0s-.07,0-.07,0v0a.64.64,0,0,0-1.08-.45.6.6,0,0,0-.17.45V66.9a.57.57,0,0,0,.17.45.68.68,0,0,0,.9,0,.58.58,0,0,0,.18-.45,0,0,0,0,1,0,0,.08.08,0,0,1,.07,0l.56,0q.09,0,.09,0v0a1.25,1.25,0,0,1-.17.64,1.17,1.17,0,0,1-.48.43,1.66,1.66,0,0,1-.72.16,1.53,1.53,0,0,1-.72-.17"/><path class="cls-1" d="M110.08,68l-.65-1.43s0,0,0,0h-.48a0,0,0,0,0,0,0V68a.08.08,0,0,1-.09.09h-.57a.08.08,0,0,1-.09-.09V64.5a.08.08,0,0,1,.09-.09h1.49a1.25,1.25,0,0,1,.59.14,1.1,1.1,0,0,1,.4.4,1.18,1.18,0,0,1,.14.58,1,1,0,0,1-.18.61.94.94,0,0,1-.5.37,0,0,0,0,0,0,0s0,0,0,0l.69,1.46,0,0a.08.08,0,0,1,0,0h-.66a.1.1,0,0,1-.1-.07m-1.2-3V66a0,0,0,0,0,0,0h.69a.57.57,0,0,0,.36-.13.46.46,0,0,0,.14-.34.48.48,0,0,0-.14-.35.52.52,0,0,0-.36-.13h-.69a0,0,0,0,0,0,0"/><path class="cls-1" d="M112,68a1.16,1.16,0,0,1-.48-.45,1.3,1.3,0,0,1-.17-.66V64.51a.08.08,0,0,1,.09-.09H112a.08.08,0,0,1,.09.09v2.38a.59.59,0,0,0,.63.63.64.64,0,0,0,.45-.17.65.65,0,0,0,.17-.46V64.51a.08.08,0,0,1,.09-.09H114a.08.08,0,0,1,.09.09v2.38a1.2,1.2,0,0,1-.17.66,1.16,1.16,0,0,1-.48.45,1.58,1.58,0,0,1-.71.16A1.63,1.63,0,0,1,112,68"/><path class="cls-1" d="M114.7,68V64.51a.08.08,0,0,1,.09-.09h.56a.08.08,0,0,1,.09.09V68a.08.08,0,0,1-.09.09h-.56a.08.08,0,0,1-.09-.09"/><path class="cls-1" d="M118.7,64.51V65a.08.08,0,0,1-.09.09h-.92a0,0,0,0,0,0,0V68a.08.08,0,0,1-.09.09H117a.08.08,0,0,1-.09-.09V65.09a0,0,0,0,0,0,0H116a.08.08,0,0,1-.09-.09v-.46a.08.08,0,0,1,.09-.09h2.61a.08.08,0,0,1,.09.09"/><path class="cls-1" d="M119.17,68V64.51a.08.08,0,0,1,.09-.09h.57a.08.08,0,0,1,.09.09V68a.08.08,0,0,1-.09.09h-.57a.08.08,0,0,1-.09-.09"/><path class="cls-1" d="M120.56,68V64.51a.08.08,0,0,1,.09-.09h.54a.13.13,0,0,1,.11.06l1.32,2.19s0,0,0,0,0,0,0,0V64.51a.08.08,0,0,1,.09-.09h.55a.08.08,0,0,1,.09.09V68a.08.08,0,0,1-.09.09h-.54a.11.11,0,0,1-.1-.06l-1.33-2.22s0,0,0,0a0,0,0,0,0,0,0V68a.08.08,0,0,1-.09.09h-.56a.08.08,0,0,1-.09-.09"/><path class="cls-1" d="M124.61,68a1.18,1.18,0,0,1-.48-.46,1.33,1.33,0,0,1-.17-.67V65.67a1.4,1.4,0,0,1,.17-.68,1.16,1.16,0,0,1,.48-.45,1.53,1.53,0,0,1,.72-.16,1.58,1.58,0,0,1,.71.15,1.19,1.19,0,0,1,.48.43,1.1,1.1,0,0,1,.17.61h0a.08.08,0,0,1-.09.09H126s0,0,0,0v0a.57.57,0,0,0-.17-.41.61.61,0,0,0-.45-.17.62.62,0,0,0-.46.18.65.65,0,0,0-.17.46v1.23a.59.59,0,0,0,.19.46.71.71,0,0,0,.91,0A.54.54,0,0,0,126,67v-.23s0,0,0,0h-.56a.08.08,0,0,1-.09-.09v-.43a.08.08,0,0,1,.09-.09h1.23a.08.08,0,0,1,.09.09v.67a1.32,1.32,0,0,1-.17.7,1.07,1.07,0,0,1-.47.45,1.66,1.66,0,0,1-.72.16,1.53,1.53,0,0,1-.72-.17"/><path class="cls-1" d="M129.19,68.45V64.19a.08.08,0,0,1,.09-.09h.56a.08.08,0,0,1,.09.09v4.26a.08.08,0,0,1-.09.09h-.56a.08.08,0,0,1-.09-.09"/><path class="cls-1" d="M135,65.06h-1.7a0,0,0,0,0,0,0v.81a0,0,0,0,0,0,0h1.1a.08.08,0,0,1,.09.09v.46a.08.08,0,0,1-.09.09h-1.1a0,0,0,0,0,0,0v.84s0,0,0,0H135c.06,0,.09,0,.09.08V68a.08.08,0,0,1-.09.09h-2.39a.08.08,0,0,1-.09-.09V64.51a.08.08,0,0,1,.09-.09H135a.08.08,0,0,1,.09.09V65a.08.08,0,0,1-.09.09"/><path class="cls-1" d="M135.61,68V64.51a.08.08,0,0,1,.09-.09h.57a.08.08,0,0,1,.09.09V68a.08.08,0,0,1-.09.09h-.57a.08.08,0,0,1-.09-.09"/><path class="cls-1" d="M137,68V64.51a.08.08,0,0,1,.09-.09h.55a.11.11,0,0,1,.1.06l1.32,2.19s0,0,0,0,0,0,0,0V64.51a.08.08,0,0,1,.09-.09h.55a.08.08,0,0,1,.09.09V68a.08.08,0,0,1-.09.09h-.54a.12.12,0,0,1-.1-.06l-1.33-2.22s0,0,0,0,0,0,0,0V68a.08.08,0,0,1-.09.09h-.56A.08.08,0,0,1,137,68"/><path class="cls-1" d="M141.06,68a1.21,1.21,0,0,1-.49-.46,1.33,1.33,0,0,1-.17-.67V65.67a1.4,1.4,0,0,1,.17-.68,1.18,1.18,0,0,1,.49-.45,1.46,1.46,0,0,1,.71-.16,1.58,1.58,0,0,1,.71.15A1.19,1.19,0,0,1,143,65a1.11,1.11,0,0,1,.18.61h0a.08.08,0,0,1-.09.09h-.63s0,0,0,0v0a.53.53,0,0,0-.17-.41.61.61,0,0,0-.45-.17.58.58,0,0,0-.45.18.61.61,0,0,0-.17.46v1.23a.62.62,0,0,0,.18.46.71.71,0,0,0,.91,0,.51.51,0,0,0,.16-.4v-.23s0,0,0,0h-.56a.08.08,0,0,1-.09-.09v-.43a.08.08,0,0,1,.09-.09h1.24a.08.08,0,0,1,.09.09v.67a1.42,1.42,0,0,1-.17.7,1.1,1.1,0,0,1-.48.45,1.63,1.63,0,0,1-.72.16,1.46,1.46,0,0,1-.71-.17"/><path class="cls-1" d="M143.68,68V64.51a.08.08,0,0,1,.09-.09h.56a.08.08,0,0,1,.09.09v2.93s0,0,0,0h1.69a.08.08,0,0,1,.09.09V68a.08.08,0,0,1-.09.09h-2.38a.08.08,0,0,1-.09-.09"/><path class="cls-1" d="M146.7,68V64.51a.08.08,0,0,1,.09-.09h.56a.08.08,0,0,1,.09.09V68a.08.08,0,0,1-.09.09h-.56a.08.08,0,0,1-.09-.09"/><path class="cls-1" d="M150.56,65.06h-1.7a0,0,0,0,0,0,0v.81a0,0,0,0,0,0,0H150a.08.08,0,0,1,.09.09v.46a.08.08,0,0,1-.09.09h-1.11a0,0,0,0,0,0,0v.84s0,0,0,0h1.7c.06,0,.09,0,.09.08V68a.08.08,0,0,1-.09.09h-2.38a.08.08,0,0,1-.09-.09V64.51a.08.08,0,0,1,.09-.09h2.38a.08.08,0,0,1,.09.09V65a.08.08,0,0,1-.09.09"/><path class="cls-1" d="M151.17,68V64.51a.08.08,0,0,1,.09-.09h1.29a1.54,1.54,0,0,1,.7.14,1,1,0,0,1,.46.39,1.07,1.07,0,0,1,.16.59V67a1,1,0,0,1-.62,1,1.54,1.54,0,0,1-.7.14h-1.29a.08.08,0,0,1-.09-.09m.78-.55h.63a.5.5,0,0,0,.39-.16.62.62,0,0,0,.16-.44V65.66a.63.63,0,0,0-.15-.44.53.53,0,0,0-.41-.16H152s0,0,0,0v2.35s0,0,0,0"/><path class="cls-1" d="M156.91,65.06h-1.7a0,0,0,0,0,0,0v.81a0,0,0,0,0,0,0h1.1a.08.08,0,0,1,.09.09v.46a.08.08,0,0,1-.09.09h-1.1a0,0,0,0,0,0,0v.84s0,0,0,0h1.7c.06,0,.09,0,.09.08V68a.08.08,0,0,1-.09.09h-2.39a.08.08,0,0,1-.09-.09V64.51a.08.08,0,0,1,.09-.09h2.39a.08.08,0,0,1,.09.09V65a.08.08,0,0,1-.09.09"/><path class="cls-1" d="M159.46,68l-.65-1.43s0,0,0,0h-.48a0,0,0,0,0,0,0V68a.08.08,0,0,1-.09.09h-.56a.08.08,0,0,1-.09-.09V64.5a.08.08,0,0,1,.09-.09h1.48a1.25,1.25,0,0,1,.59.14,1.1,1.1,0,0,1,.4.4,1.18,1.18,0,0,1,.14.58,1,1,0,0,1-.18.61.94.94,0,0,1-.5.37,0,0,0,0,0,0,0s0,0,0,0l.69,1.46,0,0a.08.08,0,0,1,0,0h-.66a.1.1,0,0,1-.1-.07m-1.2-3V66a0,0,0,0,0,0,0H159a.53.53,0,0,0,.36-.13.46.46,0,0,0,.14-.34.46.46,0,0,0-.5-.48h-.69a0,0,0,0,0,0,0"/><path class="cls-1" d="M161.38,68a1.2,1.2,0,0,1-.65-1.11V64.51a.08.08,0,0,1,.09-.09h.56a.08.08,0,0,1,.09.09v2.38a.62.62,0,0,0,.18.46.61.61,0,0,0,.45.17.64.64,0,0,0,.45-.17.65.65,0,0,0,.17-.46V64.51a.08.08,0,0,1,.09-.09h.56a.08.08,0,0,1,.09.09v2.38a1.2,1.2,0,0,1-.17.66,1.16,1.16,0,0,1-.48.45,1.58,1.58,0,0,1-.71.16,1.66,1.66,0,0,1-.72-.16"/><path class="cls-1" d="M164.08,68V64.51a.08.08,0,0,1,.09-.09h.54a.13.13,0,0,1,.11.06l1.32,2.19s0,0,0,0,0,0,0,0V64.51a.08.08,0,0,1,.09-.09h.56a.08.08,0,0,1,.09.09V68a.08.08,0,0,1-.09.09h-.54a.14.14,0,0,1-.11-.06l-1.32-2.22s0,0,0,0,0,0,0,0V68a.08.08,0,0,1-.09.09h-.56a.08.08,0,0,1-.09-.09"/><path class="cls-1" d="M168.13,68a1.12,1.12,0,0,1-.48-.46,1.24,1.24,0,0,1-.17-.67V65.67a1.3,1.3,0,0,1,.17-.68,1.1,1.1,0,0,1,.48-.45,1.53,1.53,0,0,1,.72-.16,1.61,1.61,0,0,1,.71.15A1.33,1.33,0,0,1,170,65a1.19,1.19,0,0,1,.17.61h0a.08.08,0,0,1-.09.09h-.63s0,0,0,0v0a.57.57,0,0,0-.17-.41.64.64,0,0,0-.45-.17.62.62,0,0,0-.46.18.65.65,0,0,0-.17.46v1.23a.62.62,0,0,0,.18.46.66.66,0,0,0,.47.18.62.62,0,0,0,.44-.15.51.51,0,0,0,.17-.4v-.23s0,0,0,0h-.56a.08.08,0,0,1-.09-.09v-.43a.08.08,0,0,1,.09-.09h1.23a.08.08,0,0,1,.09.09v.67a1.42,1.42,0,0,1-.17.7,1,1,0,0,1-.48.45,1.58,1.58,0,0,1-.71.16,1.53,1.53,0,0,1-.72-.17"/><path class="cls-1" d="M21.12,30.92a3.76,3.76,0,0,0,3.85-4,3.88,3.88,0,0,0-3.71-4,4.15,4.15,0,0,0-4,4.31,3.81,3.81,0,0,0,3.83,3.68"/><path class="cls-1" d="M30.18,17.23c0-.14-.76-2.35-1.88-2s-.72,1.47-.61,2.3c.3,2.24.79,6.15.39,8.37-1.21,6.76-6.34,7.61-9.89,8.58a32,32,0,0,1-8.61.9,7.85,7.85,0,0,0-.84,0c-.76,0-1.63.11-1.74,1s.76,1.28,1.53,1.5a10.6,10.6,0,0,0,2.92.32h2.8c1.91,0,3.82,0,5.73-.22,3.5-.33,3.47,2.08,3,5.64-.58,4.65-3.21,9.37-5.5,13.45a61.82,61.82,0,0,1-4.39,6.82,4,4,0,0,0-.45.7c-.25.53-.42,1.09.08,1.55a1.2,1.2,0,0,0,1.44,0,7.7,7.7,0,0,0,2.28-1.82A64.39,64.39,0,0,0,24.28,52.5c.3-.58.71-1.09,1.54-.89s.63,1,.61,1.66a57.3,57.3,0,0,1-1.86,11c0,.18-.09.36-.14.54-.29,1.16-.5,2.89.49,3.14s1.37-.28,1.75-1.08a12.68,12.68,0,0,0,.71-2.59C34.2,38.59,31,20.35,30.18,17.23"/><path class="cls-2" d="M47.64,19.2a3.77,3.77,0,0,1-3.86-4,3.87,3.87,0,0,1,3.71-4,4.13,4.13,0,0,1,4,4.31,3.8,3.8,0,0,1-3.82,3.68"/><path class="cls-2" d="M38.57,5.51c0-.14.76-2.35,1.88-2s.72,1.47.61,2.3c-.3,2.24-.78,6.15-.39,8.37,1.21,6.75,6.34,7.61,9.9,8.57a31.5,31.5,0,0,0,8.6.91,7.85,7.85,0,0,1,.84,0c.76,0,1.63.1,1.75,1S61,26,60.22,26.17a10.19,10.19,0,0,1-2.91.31h-2.8c-1.92,0-3.82,0-5.73-.22-3.51-.34-3.48,2.08-3,5.64.58,4.65,3.21,9.37,5.5,13.44a62.34,62.34,0,0,0,4.39,6.82,4.46,4.46,0,0,1,.45.71c.25.53.43,1.09-.07,1.55a1.21,1.21,0,0,1-1.45,0,7.79,7.79,0,0,1-2.27-1.82,63.15,63.15,0,0,1-7.81-11.88c-.31-.57-.72-1.08-1.55-.88s-.63,1-.61,1.65a58.62,58.62,0,0,0,1.86,11c0,.19.1.37.14.55.3,1.15.51,2.89-.48,3.14s-1.37-.28-1.75-1.09a12.42,12.42,0,0,1-.72-2.58c-6.82-25.71-3.63-43.95-2.8-47.07"/><rect class="cls-3" x="6.98" y="3.44" width="163.43" height="65.09"/></svg>